<mxfile host="app.diagrams.net" agent="Mozilla/5.0 (Macintosh; Intel Mac OS X 10_15_7) AppleWebKit/537.36 (KHTML, like Gecko) Chrome/129.0.0.0 Safari/537.36" version="24.7.16">
  <diagram name="Page-1" id="5QD_O31o0pyzWz7ObHfo">
    <mxGraphModel dx="1434" dy="819" grid="0" gridSize="10" guides="1" tooltips="1" connect="1" arrows="1" fold="1" page="1" pageScale="1" pageWidth="850" pageHeight="1100" background="none" math="0" shadow="1">
      <root>
        <mxCell id="0" />
        <mxCell id="1" parent="0" />
        <mxCell id="PL87Uc_Rq2B-KHmNzyDa-1" value="" style="rounded=1;whiteSpace=wrap;html=1;fillColor=none;strokeColor=#457B9D;strokeWidth=2;labelBackgroundColor=none;fontColor=#1D3557;sketch=1;curveFitting=1;jiggle=2;" parent="1" vertex="1">
          <mxGeometry x="121" y="167" width="146" height="123" as="geometry" />
        </mxCell>
        <mxCell id="PL87Uc_Rq2B-KHmNzyDa-6" value="&lt;font color=&quot;#ff6666&quot; face=&quot;Garamond&quot;&gt;version.dll&lt;/font&gt;&lt;div&gt;&lt;font color=&quot;#ff9999&quot; face=&quot;Garamond&quot;&gt;&lt;br&gt;&lt;/font&gt;&lt;div&gt;&lt;font color=&quot;#ff6666&quot; face=&quot;Garamond&quot;&gt;&lt;u style=&quot;&quot;&gt;exports&lt;/u&gt;&lt;/font&gt;&lt;/div&gt;&lt;div&gt;&lt;span style=&quot;background-color: initial;&quot;&gt;&lt;font color=&quot;#ff9999&quot; face=&quot;Garamond&quot;&gt;&lt;br&gt;&lt;/font&gt;&lt;/span&gt;&lt;/div&gt;&lt;div&gt;&lt;span style=&quot;background-color: initial;&quot;&gt;&lt;font color=&quot;#ff6666&quot; face=&quot;Garamond&quot;&gt;VerQueryValueW&lt;/font&gt;&lt;/span&gt;&lt;/div&gt;&lt;div&gt;&lt;font color=&quot;#ff6666&quot; face=&quot;Garamond&quot;&gt;GetFileVersionInfoW&lt;/font&gt;&lt;/div&gt;&lt;div&gt;&lt;font color=&quot;#ff6666&quot; face=&quot;Garamond&quot;&gt;GetFileVersionInfoSizeW&lt;/font&gt;&lt;/div&gt;&lt;/div&gt;" style="rounded=1;whiteSpace=wrap;html=1;fillColor=none;strokeColor=#457B9D;strokeWidth=2;glass=1;shadow=1;labelBackgroundColor=none;fontColor=#1D3557;sketch=1;curveFitting=1;jiggle=2;" parent="1" vertex="1">
          <mxGeometry x="458" y="168" width="236" height="125" as="geometry" />
        </mxCell>
        <mxCell id="PL87Uc_Rq2B-KHmNzyDa-7" value="&lt;font&gt;Process&lt;br&gt;(OneDrive.exe)&lt;/font&gt;" style="text;html=1;align=center;verticalAlign=middle;whiteSpace=wrap;rounded=1;fontFamily=Garamond;textShadow=1;glass=1;shadow=1;labelBackgroundColor=none;fontColor=#1D3557;sketch=1;curveFitting=1;jiggle=2;" parent="1" vertex="1">
          <mxGeometry x="133.5" y="217.5" width="121" height="30" as="geometry" />
        </mxCell>
        <mxCell id="GJUrVeCOSDlDtuk8vVQv-1" value="" style="rounded=1;whiteSpace=wrap;html=1;fillColor=none;dashed=1;strokeColor=#457B9D;glass=1;shadow=1;fontFamily=Garamond;labelBackgroundColor=none;fontColor=#1D3557;sketch=1;curveFitting=1;jiggle=2;textShadow=1;" vertex="1" parent="1">
          <mxGeometry x="478" y="229" width="197" height="55" as="geometry" />
        </mxCell>
        <mxCell id="GJUrVeCOSDlDtuk8vVQv-2" value="" style="endArrow=classic;html=1;rounded=0;entryX=0.321;entryY=0.164;entryDx=0;entryDy=0;entryPerimeter=0;dashed=1;strokeColor=#457B9D;labelBackgroundColor=none;fontColor=default;sketch=1;curveFitting=1;jiggle=2;" edge="1" parent="1" target="PL87Uc_Rq2B-KHmNzyDa-6">
          <mxGeometry width="50" height="50" relative="1" as="geometry">
            <mxPoint x="269" y="188" as="sourcePoint" />
            <mxPoint x="364" y="188" as="targetPoint" />
          </mxGeometry>
        </mxCell>
        <mxCell id="GJUrVeCOSDlDtuk8vVQv-3" value="" style="endArrow=classic;html=1;rounded=0;dashed=1;strokeColor=#457B9D;labelBackgroundColor=none;fontColor=default;sketch=1;curveFitting=1;jiggle=2;" edge="1" parent="1">
          <mxGeometry width="50" height="50" relative="1" as="geometry">
            <mxPoint x="267" y="256" as="sourcePoint" />
            <mxPoint x="478" y="256" as="targetPoint" />
          </mxGeometry>
        </mxCell>
        <mxCell id="GJUrVeCOSDlDtuk8vVQv-4" value="Loads" style="text;html=1;align=center;verticalAlign=middle;whiteSpace=wrap;rounded=1;dashed=1;fillColor=none;strokeColor=#457B9D;fontColor=#1D3557;textShadow=1;glass=1;shadow=1;fontFamily=Garamond;labelBackgroundColor=none;sketch=1;curveFitting=1;jiggle=2;" vertex="1" parent="1">
          <mxGeometry x="327" y="151" width="60" height="30" as="geometry" />
        </mxCell>
        <mxCell id="GJUrVeCOSDlDtuk8vVQv-5" value="Imports/Calls" style="text;html=1;align=center;verticalAlign=middle;whiteSpace=wrap;rounded=1;fillColor=none;strokeColor=#457B9D;fontColor=#1D3557;textShadow=1;dashed=1;glass=1;shadow=1;fontFamily=Garamond;labelBackgroundColor=none;sketch=1;curveFitting=1;jiggle=2;" vertex="1" parent="1">
          <mxGeometry x="327" y="217.5" width="98" height="30" as="geometry" />
        </mxCell>
        <mxCell id="GJUrVeCOSDlDtuk8vVQv-6" value="Normal Execution" style="rounded=1;whiteSpace=wrap;html=1;fillColor=none;strokeColor=#457B9D;fontColor=#1D3557;dashed=1;glass=1;shadow=1;fontFamily=Garamond;labelBackgroundColor=none;sketch=1;curveFitting=1;jiggle=2;" vertex="1" parent="1">
          <mxGeometry x="51" y="67" width="135.5" height="60" as="geometry" />
        </mxCell>
        <mxCell id="GJUrVeCOSDlDtuk8vVQv-7" value="Proxy Execution" style="rounded=1;whiteSpace=wrap;html=1;fillColor=none;strokeColor=#457B9D;fontColor=#1D3557;dashed=1;glass=1;shadow=1;fontFamily=Garamond;labelBackgroundColor=none;sketch=1;curveFitting=1;jiggle=2;" vertex="1" parent="1">
          <mxGeometry x="56.25" y="347" width="135.5" height="60" as="geometry" />
        </mxCell>
        <mxCell id="GJUrVeCOSDlDtuk8vVQv-11" value="" style="rounded=1;whiteSpace=wrap;html=1;fillColor=none;strokeColor=#457B9D;strokeWidth=2;labelBackgroundColor=none;fontColor=#1D3557;sketch=1;curveFitting=1;jiggle=2;" vertex="1" parent="1">
          <mxGeometry x="51" y="427" width="146" height="173" as="geometry" />
        </mxCell>
        <mxCell id="GJUrVeCOSDlDtuk8vVQv-8" value="" style="rounded=1;whiteSpace=wrap;html=1;sketch=1;hachureGap=4;jiggle=2;curveFitting=1;fontFamily=Architects Daughter;fontSource=https%3A%2F%2Ffonts.googleapis.com%2Fcss%3Ffamily%3DArchitects%2BDaughter;fillColor=none;dashed=1;glass=1;shadow=1;strokeColor=#457B9D;labelBackgroundColor=none;fontColor=#1D3557;" vertex="1" parent="1">
          <mxGeometry x="51" y="137" width="698" height="179" as="geometry" />
        </mxCell>
        <mxCell id="GJUrVeCOSDlDtuk8vVQv-12" value="&lt;font color=&quot;#ff6666&quot; face=&quot;Garamond&quot;&gt;orginal.dll&lt;/font&gt;&lt;div&gt;&lt;font color=&quot;#ff9999&quot; face=&quot;Garamond&quot;&gt;&lt;br&gt;&lt;/font&gt;&lt;div&gt;&lt;font color=&quot;#ff6666&quot; face=&quot;Garamond&quot;&gt;&lt;u style=&quot;&quot;&gt;exports&lt;/u&gt;&lt;/font&gt;&lt;/div&gt;&lt;div&gt;&lt;span style=&quot;background-color: initial;&quot;&gt;&lt;font color=&quot;#ff9999&quot; face=&quot;Garamond&quot;&gt;&lt;br&gt;&lt;/font&gt;&lt;/span&gt;&lt;/div&gt;&lt;div&gt;&lt;span style=&quot;background-color: initial;&quot;&gt;&lt;font color=&quot;#ff6666&quot; face=&quot;Garamond&quot;&gt;VerQueryValueW&lt;/font&gt;&lt;/span&gt;&lt;/div&gt;&lt;div&gt;&lt;font color=&quot;#ff6666&quot; face=&quot;Garamond&quot;&gt;GetFileVersionInfoW&lt;/font&gt;&lt;/div&gt;&lt;div&gt;&lt;font color=&quot;#ff6666&quot; face=&quot;Garamond&quot;&gt;GetFileVersionInfoSizeW&lt;/font&gt;&lt;/div&gt;&lt;/div&gt;" style="rounded=1;whiteSpace=wrap;html=1;fillColor=none;strokeColor=#457B9D;strokeWidth=2;glass=1;shadow=1;labelBackgroundColor=none;fontColor=#1D3557;sketch=1;curveFitting=1;jiggle=2;" vertex="1" parent="1">
          <mxGeometry x="611" y="431" width="236" height="165" as="geometry" />
        </mxCell>
        <mxCell id="GJUrVeCOSDlDtuk8vVQv-13" value="&lt;font&gt;Process&lt;br&gt;(OneDrive.exe)&lt;/font&gt;" style="text;html=1;align=center;verticalAlign=middle;whiteSpace=wrap;rounded=1;fontFamily=Garamond;textShadow=1;glass=1;shadow=1;labelBackgroundColor=none;fontColor=#1D3557;sketch=1;curveFitting=1;jiggle=2;" vertex="1" parent="1">
          <mxGeometry x="61" y="496" width="121" height="30" as="geometry" />
        </mxCell>
        <mxCell id="GJUrVeCOSDlDtuk8vVQv-14" value="&lt;font color=&quot;#ff6666&quot; face=&quot;Garamond&quot;&gt;version.dll&lt;/font&gt;&lt;div&gt;&lt;font color=&quot;#ff9999&quot; face=&quot;Garamond&quot;&gt;&lt;br&gt;&lt;/font&gt;&lt;div&gt;&lt;font color=&quot;#ff6666&quot; face=&quot;Garamond&quot;&gt;&lt;u style=&quot;&quot;&gt;exports&lt;/u&gt;&lt;/font&gt;&lt;/div&gt;&lt;div&gt;&lt;span style=&quot;background-color: initial;&quot;&gt;&lt;font color=&quot;#ff9999&quot; face=&quot;Garamond&quot;&gt;&lt;br&gt;&lt;/font&gt;&lt;/span&gt;&lt;/div&gt;&lt;div&gt;&lt;span style=&quot;background-color: initial;&quot;&gt;&lt;font color=&quot;#ff6666&quot; face=&quot;Garamond&quot;&gt;VerQueryValueW&lt;/font&gt;&lt;/span&gt;&lt;/div&gt;&lt;div&gt;&lt;font color=&quot;#ff6666&quot; face=&quot;Garamond&quot;&gt;GetFileVersionInfoW&lt;/font&gt;&lt;/div&gt;&lt;div&gt;&lt;font color=&quot;#ff6666&quot; face=&quot;Garamond&quot;&gt;GetFileVersionInfoSizeW&lt;/font&gt;&lt;/div&gt;&lt;/div&gt;" style="rounded=1;whiteSpace=wrap;html=1;fillColor=none;strokeColor=#457B9D;strokeWidth=2;glass=1;shadow=1;labelBackgroundColor=none;fontColor=#1D3557;sketch=1;curveFitting=1;jiggle=2;textShadow=1;" vertex="1" parent="1">
          <mxGeometry x="304" y="423" width="236" height="176" as="geometry" />
        </mxCell>
        <mxCell id="GJUrVeCOSDlDtuk8vVQv-16" value="" style="endArrow=classic;html=1;rounded=0;dashed=1;strokeColor=#457B9D;labelBackgroundColor=none;fontColor=default;sketch=1;curveFitting=1;jiggle=2;" edge="1" parent="1">
          <mxGeometry width="50" height="50" relative="1" as="geometry">
            <mxPoint x="200" y="468" as="sourcePoint" />
            <mxPoint x="381" y="468" as="targetPoint" />
          </mxGeometry>
        </mxCell>
        <mxCell id="GJUrVeCOSDlDtuk8vVQv-17" value="" style="endArrow=classic;html=1;rounded=0;dashed=1;strokeColor=#457B9D;labelBackgroundColor=none;fontColor=default;sketch=1;curveFitting=1;jiggle=2;entryX=0;entryY=0.5;entryDx=0;entryDy=0;" edge="1" parent="1" target="GJUrVeCOSDlDtuk8vVQv-18">
          <mxGeometry width="50" height="50" relative="1" as="geometry">
            <mxPoint x="200" y="539.5" as="sourcePoint" />
            <mxPoint x="327" y="567" as="targetPoint" />
          </mxGeometry>
        </mxCell>
        <mxCell id="GJUrVeCOSDlDtuk8vVQv-18" value="" style="rounded=1;whiteSpace=wrap;html=1;fillColor=none;dashed=1;strokeColor=#457B9D;glass=1;shadow=1;fontFamily=Garamond;labelBackgroundColor=none;fontColor=#1D3557;sketch=1;curveFitting=1;jiggle=2;" vertex="1" parent="1">
          <mxGeometry x="327" y="512" width="197" height="55" as="geometry" />
        </mxCell>
        <mxCell id="GJUrVeCOSDlDtuk8vVQv-19" value="Loads" style="text;html=1;align=center;verticalAlign=middle;whiteSpace=wrap;rounded=1;dashed=1;fillColor=none;strokeColor=#457B9D;fontColor=#1D3557;textShadow=1;glass=1;shadow=1;fontFamily=Garamond;labelBackgroundColor=none;sketch=1;curveFitting=1;jiggle=2;" vertex="1" parent="1">
          <mxGeometry x="221" y="427" width="60" height="30" as="geometry" />
        </mxCell>
        <mxCell id="GJUrVeCOSDlDtuk8vVQv-20" value="Imports/Calls" style="text;html=1;align=center;verticalAlign=middle;whiteSpace=wrap;rounded=1;fillColor=none;strokeColor=#457B9D;fontColor=#1D3557;textShadow=1;dashed=1;glass=1;shadow=1;fontFamily=Garamond;labelBackgroundColor=none;sketch=1;curveFitting=1;jiggle=2;" vertex="1" parent="1">
          <mxGeometry x="202" y="496" width="98" height="30" as="geometry" />
        </mxCell>
        <mxCell id="GJUrVeCOSDlDtuk8vVQv-22" value="" style="rounded=1;whiteSpace=wrap;html=1;fillColor=none;dashed=1;strokeColor=#457B9D;glass=1;shadow=1;fontFamily=Garamond;labelBackgroundColor=none;fontColor=#1D3557;sketch=1;curveFitting=1;jiggle=2;" vertex="1" parent="1">
          <mxGeometry x="633" y="516" width="197" height="55" as="geometry" />
        </mxCell>
        <mxCell id="GJUrVeCOSDlDtuk8vVQv-23" value="Malicious Function" style="rounded=1;whiteSpace=wrap;html=1;fillColor=none;dashed=1;strokeColor=#457B9D;glass=1;shadow=1;fontFamily=Garamond;labelBackgroundColor=none;fontColor=#1D3557;sketch=1;curveFitting=1;jiggle=2;" vertex="1" parent="1">
          <mxGeometry x="327" y="574" width="197" height="22" as="geometry" />
        </mxCell>
        <mxCell id="GJUrVeCOSDlDtuk8vVQv-25" value="Proxy DLL" style="text;html=1;align=center;verticalAlign=middle;whiteSpace=wrap;rounded=1;fillColor=none;strokeColor=#457B9D;fontColor=#1D3557;textShadow=1;dashed=1;glass=1;shadow=1;fontFamily=Garamond;labelBackgroundColor=none;sketch=1;curveFitting=1;jiggle=2;" vertex="1" parent="1">
          <mxGeometry x="373" y="355" width="98" height="30" as="geometry" />
        </mxCell>
        <mxCell id="GJUrVeCOSDlDtuk8vVQv-26" value="" style="endArrow=classic;html=1;rounded=0;dashed=1;strokeColor=#457B9D;labelBackgroundColor=none;fontColor=default;sketch=1;curveFitting=1;jiggle=2;entryX=0.5;entryY=0;entryDx=0;entryDy=0;exitX=0.5;exitY=1;exitDx=0;exitDy=0;" edge="1" parent="1" source="GJUrVeCOSDlDtuk8vVQv-25" target="GJUrVeCOSDlDtuk8vVQv-14">
          <mxGeometry width="50" height="50" relative="1" as="geometry">
            <mxPoint x="419" y="397" as="sourcePoint" />
            <mxPoint x="600" y="397" as="targetPoint" />
          </mxGeometry>
        </mxCell>
        <mxCell id="GJUrVeCOSDlDtuk8vVQv-27" value="" style="endArrow=classic;html=1;rounded=0;dashed=1;strokeColor=#457B9D;labelBackgroundColor=none;fontColor=default;sketch=1;curveFitting=1;jiggle=2;entryX=0;entryY=0.5;entryDx=0;entryDy=0;exitX=1;exitY=0.75;exitDx=0;exitDy=0;" edge="1" parent="1" source="GJUrVeCOSDlDtuk8vVQv-18">
          <mxGeometry width="50" height="50" relative="1" as="geometry">
            <mxPoint x="524" y="546" as="sourcePoint" />
            <mxPoint x="633" y="550" as="targetPoint" />
          </mxGeometry>
        </mxCell>
        <mxCell id="GJUrVeCOSDlDtuk8vVQv-28" value="original version.dll" style="text;html=1;align=center;verticalAlign=middle;whiteSpace=wrap;rounded=1;fillColor=none;strokeColor=#457B9D;fontColor=#1D3557;textShadow=1;dashed=1;glass=1;shadow=1;fontFamily=Garamond;labelBackgroundColor=none;sketch=1;curveFitting=1;jiggle=2;" vertex="1" parent="1">
          <mxGeometry x="617" y="353" width="161" height="30" as="geometry" />
        </mxCell>
        <mxCell id="GJUrVeCOSDlDtuk8vVQv-29" value="" style="endArrow=classic;html=1;rounded=0;dashed=1;strokeColor=#457B9D;labelBackgroundColor=none;fontColor=default;sketch=1;curveFitting=1;jiggle=2;entryX=0.5;entryY=0;entryDx=0;entryDy=0;exitX=0.5;exitY=1;exitDx=0;exitDy=0;" edge="1" parent="1">
          <mxGeometry width="50" height="50" relative="1" as="geometry">
            <mxPoint x="708" y="389" as="sourcePoint" />
            <mxPoint x="708" y="427" as="targetPoint" />
          </mxGeometry>
        </mxCell>
        <mxCell id="GJUrVeCOSDlDtuk8vVQv-30" value="Forwards" style="text;html=1;align=center;verticalAlign=middle;whiteSpace=wrap;rounded=1;fillColor=none;strokeColor=#457B9D;fontColor=#1D3557;textShadow=1;dashed=1;glass=1;shadow=1;fontFamily=Garamond;labelBackgroundColor=none;sketch=1;curveFitting=1;jiggle=2;" vertex="1" parent="1">
          <mxGeometry x="543.5" y="509" width="65" height="30" as="geometry" />
        </mxCell>
        <mxCell id="GJUrVeCOSDlDtuk8vVQv-31" value="" style="rounded=1;whiteSpace=wrap;html=1;sketch=1;hachureGap=4;jiggle=2;curveFitting=1;fontFamily=Architects Daughter;fontSource=https%3A%2F%2Ffonts.googleapis.com%2Fcss%3Ffamily%3DArchitects%2BDaughter;fillColor=none;dashed=1;glass=1;shadow=1;strokeColor=#457B9D;labelBackgroundColor=none;fontColor=#1D3557;textShadow=1;" vertex="1" parent="1">
          <mxGeometry x="36" y="412.5" width="814" height="202" as="geometry" />
        </mxCell>
      </root>
    </mxGraphModel>
  </diagram>
</mxfile>
